<svg width="512" height="512" viewBox="0 0 512 512" fill="none" xmlns="http://www.w3.org/2000/svg">
  <rect width="512" height="512" rx="112" fill="#111111"/>
  <path d="M132 290C132 229.249 181.249 180 242 180H270C330.751 180 380 229.249 380 290V304C380 321.673 365.673 336 348 336H164C146.327 336 132 321.673 132 304V290Z" fill="#22C55E"/>
  <path d="M178 274C178 239.206 206.206 211 241 211H271C305.794 211 334 239.206 334 274V284H178V274Z" fill="#F7F7F4"/>
  <path d="M186 336H326C318.08 363.681 289.145 384 256 384C222.855 384 193.92 363.681 186 336Z" fill="#F7F7F4"/>
  <path d="M172 172C172 142.177 196.177 118 226 118H286C315.823 118 340 142.177 340 172V187C319.951 172.533 295.36 164 268.764 164H243.236C216.64 164 192.049 172.533 172 187V172Z" fill="#F7F7F4"/>
  <circle cx="214" cy="151" r="10" fill="#111111"/>
  <circle cx="298" cy="151" r="10" fill="#111111"/>
  <path d="M249 162C249 158.134 252.134 155 256 155C259.866 155 263 158.134 263 162V172C263 175.866 259.866 179 256 179C252.134 179 249 175.866 249 172V162Z" fill="#111111"/>
  <path d="M159 392H353" stroke="#22C55E" stroke-width="22" stroke-linecap="round"/>
  <path d="M190 419H322" stroke="#F7F7F4" stroke-width="18" stroke-linecap="round"/>
</svg>
